<svg xmlns="http://www.w3.org/2000/svg" version="1.1" xmlns:xlink="http://www.w3.org/1999/xlink" xmlns:svgjs="http://svgjs.com/svgjs" width="131.16721298622906" height="141.07315354979326"><svg version="1.1" xmlns="http://www.w3.org/2000/svg" xmlns:xlink="http://www.w3.org/1999/xlink" viewBox="209.41639350688547 115.00000000000003 131.16721298622906 141.07315354979326" preserveAspectRatio="none">
  <g fill-rule="evenodd">
    <g>
      <path d="M298.46186,251.11118c8.27928,-3.21198 15.66724,-8.17095 22.16387,-14.87691c13.30525,-13.49459 19.95788,-30.39382 19.95788,-50.6977c0,-20.30388 -6.68596,-37.23778 -20.05788,-50.7997c-6.44063,-6.64996 -13.78325,-11.56993 -22.02787,-14.75991c-8.10295,-3.31798 -16.4729,-4.97697 -25.10785,-4.97697h-35.04479c-7.96795,0 -14.78191,2.82898 -20.43988,8.48795c-5.65897,5.65897 -8.48895,12.47193 -8.48895,20.43988v8.91595c0,7.93062 2.77365,14.72358 8.32095,20.37888c5.67063,5.78197 12.53992,8.67295 20.60788,8.67295h34.29979c0.365,0.774 0.547,1.98799 0.547,3.64098c0,1.58899 -0.195,2.80298 -0.584,3.64098h-34.26279c-8.06795,0 -14.93691,2.89098 -20.60788,8.67295c-5.54697,5.65597 -8.32095,12.44893 -8.32095,20.37888v8.91595c0,7.96795 2.82998,14.78091 8.48895,20.43988c5.65863,5.65863 12.47193,8.48795 20.43988,8.48795h35.04479c8.62295,0 16.9799,-1.65399 25.07185,-4.96197zM314.78776,230.47831c-5.7053,5.88996 -12.14626,10.22394 -19.32288,13.00192l-0.073,0.029c-7.10796,2.91098 -14.44191,4.36597 -22.00187,4.36597h-35.04479c-5.70497,0 -10.58594,-2.02899 -14.64391,-6.08696c-4.05798,-4.05798 -6.08696,-8.93895 -6.08696,-14.64291v-8.91595c0,-5.69797 1.99199,-10.57694 5.97496,-14.63891c4.06398,-4.14331 8.98261,-6.21496 14.75591,-6.21496h34.67379c2.32999,0 4.11998,-0.72 5.36697,-2.15999c2.00299,-2.37999 3.00398,-5.60697 3.00398,-9.67894c0,-4.07098 -0.92899,-7.21296 -2.78698,-9.42594c-1.38899,-1.60799 -3.25098,-2.41299 -5.58397,-2.41299h-34.67379c-5.77297,0 -10.69194,-2.07199 -14.75591,-6.21496c-3.98298,-4.06198 -5.97496,-8.94095 -5.97496,-14.63891v-8.91595c0,-5.70397 2.02899,-10.58494 6.08696,-14.64291c4.05798,-4.05798 8.93895,-6.08696 14.64391,-6.08696h35.04479c7.55995,0 14.89291,1.45499 22.00087,4.36597c7.22496,2.79698 13.63992,7.08896 19.24588,12.87592c11.8326,12.00193 17.74889,27.03417 17.74889,45.09673c0,18.06289 -5.86596,33.0438 -17.59789,44.94173z"></path>
      <path d="M273.39001,139.59385c5.44897,0 10.89793,1.11399 15.9749,3.21998c5.20097,1.98099 9.78294,5.20097 13.62192,9.16295c8.66795,8.79295 13.00292,20.06188 13.00292,33.5598c0,13.49792 -4.33497,24.76685 -13.00292,33.5598c-3.83898,3.96198 -8.42095,7.18196 -13.62192,9.16395c-5.07697,2.10499 -10.52594,3.21898 -15.9749,3.21898h-35.04479c-2.35299,0 -4.33497,-1.98099 -4.33497,-4.33397v-8.91595c0,-2.47699 1.98199,-4.45797 4.33497,-4.45797h34.67379c7.42996,0 13.24992,-2.60098 17.95589,-8.04995c4.58197,-5.44797 6.81096,-12.01193 6.81096,-20.18488c0,-8.17295 -2.22899,-14.73591 -6.81096,-20.18488c-4.70597,-5.44897 -10.52594,-8.04995 -17.95589,-8.04995h-34.67379c-2.35299,0 -4.33497,-1.98099 -4.33497,-4.45797v-8.91595c0,-2.35299 1.98199,-4.33397 4.33497,-4.33397z"></path>
    </g>
  </g>
</svg><style>@media (prefers-color-scheme: light) { :root { filter: none; } }
</style></svg>